<?xml version="1.0" standalone="no"?><!-- Generator: Gravit.io --><svg xmlns="http://www.w3.org/2000/svg" xmlns:xlink="http://www.w3.org/1999/xlink" style="isolation:isolate" viewBox="0 0 1000 792.274" width="1000" height="792.274"><defs><clipPath id="_clipPath_XPmGT5asO2rRgTsB80Xa4wNnM0kRIJUB"><rect width="1000" height="792.274"/></clipPath></defs><g clip-path="url(#_clipPath_XPmGT5asO2rRgTsB80Xa4wNnM0kRIJUB)"><g style="isolation:isolate" id="Logo 1"><g id="Grupo"><mask id="_mask_Q0PNWnYhfQymNCdY05RrltBYbRJU1Cgs" x="-200%" y="-200%" width="400%" height="400%"><rect x="0" y="0" width="100%" height="100%" style="fill:white;"/><path d=" M 175.6 479.134 Q 64.905 386.59 63.983 289.095 L 256.335 61.062 C 338.247 34.773 420.538 63.233 495.997 140.709 Q 527.582 160.516 854.415 500.249 C 854.415 545.479 838.847 564.693 794.304 564.693 Q 787.224 558.008 780.469 551.655 C 690.919 467.436 644.274 427.025 640.537 430.423 Q 636.02 434.528 775.441 576.569 C 775.441 613.542 765.529 639.203 716.019 639.203 Q 566.401 509.376 561.843 513.935 Q 557.828 517.95 696.747 652.051 C 696.747 693.367 685.704 714.684 637.325 714.684 Q 489.037 586.205 484.755 591.023 Q 480.289 596.047 618.053 727.533 C 618.053 770.455 604.986 784.273 561.843 784.274 Q 242.172 543.167 175.6 479.134 Z " fill="black" stroke="none"/></mask><path d=" M 175.6 479.134 Q 64.905 386.59 63.983 289.095 L 256.335 61.062 C 338.247 34.773 420.538 63.233 495.997 140.709 Q 527.582 160.516 854.415 500.249 C 854.415 545.479 838.847 564.693 794.304 564.693 Q 787.224 558.008 780.469 551.655 C 690.919 467.436 644.274 427.025 640.537 430.423 Q 636.02 434.528 775.441 576.569 C 775.441 613.542 765.529 639.203 716.019 639.203 Q 566.401 509.376 561.843 513.935 Q 557.828 517.95 696.747 652.051 C 696.747 693.367 685.704 714.684 637.325 714.684 Q 489.037 586.205 484.755 591.023 Q 480.289 596.047 618.053 727.533 C 618.053 770.455 604.986 784.273 561.843 784.274 Q 242.172 543.167 175.6 479.134 Z " fill="rgb(67,185,214)" mask="url(#_mask_Q0PNWnYhfQymNCdY05RrltBYbRJU1Cgs)" vector-effect="non-scaling-stroke" stroke-width="16" stroke="rgb(255,255,255)" stroke-linejoin="round" stroke-linecap="round" stroke-miterlimit="3"/><mask id="_mask_ic4dA73oLkzD3Y9pJSoZ7Qt72MYZQz61" x="-200%" y="-200%" width="400%" height="400%"><rect x="0" y="0" width="100%" height="100%" style="fill:white;"/><rect x="-23.672" y="129.641" width="322.307" height="49.328" transform="matrix(0.643,-0.766,0.766,0.643,-69.094,160.436)" fill="black" stroke="none"/></mask><rect x="-23.672" y="129.641" width="322.307" height="49.328" transform="matrix(0.643,-0.766,0.766,0.643,-69.094,160.436)" fill="rgb(67,185,214)" mask="url(#_mask_ic4dA73oLkzD3Y9pJSoZ7Qt72MYZQz61)" vector-effect="non-scaling-stroke" stroke-width="10" stroke="rgb(255,255,255)" stroke-linejoin="miter" stroke-linecap="square" stroke-miterlimit="3"/></g><g id="Grupo"><path d=" M 441.234 664.78 C 467.526 620.68 513.816 599.195 541.453 615.673 C 569.09 632.15 570.953 682.822 541.383 724.489 C 511.01 767.289 471.429 790.808 443.67 774.537 C 398.658 748.152 414.941 708.879 441.234 664.78 Z " fill="rgb(215,44,103)" vector-effect="non-scaling-stroke" stroke-width="8" stroke="rgb(255,255,255)" stroke-linejoin="round" stroke-linecap="round" stroke-miterlimit="3"/><path d=" M 358.794 586.647 C 393.098 542.257 445.168 526.289 465.579 540.708 C 491.021 558.681 482.358 611.236 448.054 655.626 C 413.75 700.016 388.161 727.666 346.557 693.278 C 314.491 666.773 324.49 631.037 358.794 586.647 Z " fill="rgb(215,44,103)" vector-effect="non-scaling-stroke" stroke-width="8" stroke="rgb(255,255,255)" stroke-linejoin="round" stroke-linecap="round" stroke-miterlimit="3"/><path d=" M 276.622 521.389 C 305.622 486.412 347.968 472.168 368.319 488.88 C 391.849 508.205 383.12 548.593 357.974 583.704 C 329.352 623.667 296.544 639.83 270.71 622.219 C 243.76 603.848 245.922 558.416 276.622 521.389 Z " fill="rgb(215,44,103)" vector-effect="non-scaling-stroke" stroke-width="8" stroke="rgb(255,255,255)" stroke-linejoin="round" stroke-linecap="round" stroke-miterlimit="3"/><path d=" M 195.399 475.347 C 207.423 447.975 239.836 435.432 262.522 445.398 C 285.207 455.364 293.863 485.677 281.838 513.05 C 269.813 540.422 237.497 553.001 214.811 543.035 C 192.125 533.069 183.374 502.72 195.399 475.347 Z " fill="rgb(215,44,103)" vector-effect="non-scaling-stroke" stroke-width="8" stroke="rgb(255,255,255)" stroke-linejoin="round" stroke-linecap="round" stroke-miterlimit="3"/><path d=" M 935.628 288.421 L 740.19 55.057 C 678.668 45.792 608.498 49.745 536.229 106.46 C 499.993 134.897 477.523 167.286 445.088 199.597 C 427.567 217.05 409.107 227.906 394.886 248.921 C 380.665 269.935 416.545 320.291 462.353 310.411 C 508.16 300.531 532.244 223.862 571.561 214.051 C 577.548 214.52 623.162 257.692 708.402 343.566 Q 765.429 401.017 846.104 483.952 Q 941.492 359.76 935.628 288.421 Z " fill="rgb(215,44,103)" vector-effect="non-scaling-stroke" stroke-width="8" stroke="rgb(255,255,255)" stroke-linejoin="miter" stroke-linecap="square" stroke-miterlimit="3"/><mask id="_mask_PfwlMVcyLBIYgdHnmVqFjvwqlZQl2fw4" x="-200%" y="-200%" width="400%" height="400%"><rect x="0" y="0" width="100%" height="100%" style="fill:white;"/><rect x="701.954" y="129.067" width="321.2" height="50.164" transform="matrix(0.643,0.766,-0.766,0.643,426.2,-605.691)" fill="black" stroke="none"/></mask><rect x="701.954" y="129.067" width="321.2" height="50.164" transform="matrix(0.643,0.766,-0.766,0.643,426.2,-605.691)" fill="rgb(215,44,103)" mask="url(#_mask_PfwlMVcyLBIYgdHnmVqFjvwqlZQl2fw4)" vector-effect="non-scaling-stroke" stroke-width="10" stroke="rgb(255,255,255)" stroke-linejoin="miter" stroke-linecap="square" stroke-miterlimit="3"/></g></g></g></svg>