<?xml version="1.0" standalone="no"?><!-- Generator: Gravit.io --><svg xmlns="http://www.w3.org/2000/svg" xmlns:xlink="http://www.w3.org/1999/xlink" style="isolation:isolate" viewBox="0 0 1000 792" width="1000" height="792"><defs><clipPath id="_clipPath_oivihm2Gnjc9x4cBwtaWkjkuPDq55N7D"><rect width="1000" height="792"/></clipPath></defs><g clip-path="url(#_clipPath_oivihm2Gnjc9x4cBwtaWkjkuPDq55N7D)"><path d=" M 110.917 396 C 110.917 177.442 285.259 0 500 0 C 714.741 0 889.083 177.442 889.083 396 C 889.083 614.558 714.741 792 500 792 C 285.259 792 110.917 614.558 110.917 396 Z " fill="rgb(0,163,0)"/><path d=" M 445.336 681.676 Q 524.483 701.445 611.466 669.785 Q 707.68 634.766 759.348 559.004 Q 808.135 485.529 803.833 395.469 L 790.488 388.328 L 715.273 427.703 Q 713.798 481.481 684.089 525.726 Q 654.379 569.97 601.899 589.071 Q 505.685 624.09 428.733 582.76 Q 353.67 543.219 321.835 455.752 Q 289.999 368.284 322.084 289.745 Q 336.884 252.165 367.542 222.434 Q 398.2 192.702 450.68 173.601 Q 503.161 154.5 554.359 169.296 Q 595.215 184.376 628.924 218.795 C 631.201 221.121 639.066 221.872 641.255 224.341 L 729.816 192.108 Q 675.221 120.353 590.62 95.427 Q 502.341 70.602 406.127 105.621 Q 285.859 149.395 240.264 258.854 Q 196.06 365.33 239.834 485.597 Q 273.62 578.424 342.274 631.268 L 347.893 675.95 L 347.404 738.623 L 357.086 749.062 L 412.556 706.706 L 445.336 681.676 Z " fill="rgb(125,125,125)"/><path d="M 410.426 300.269 L 443.114 288.371 C 450.552 285.664 458.789 289.505 461.496 296.943 L 487.215 367.605 C 489.922 375.043 486.081 383.279 478.643 385.986 L 445.955 397.884 C 438.517 400.591 430.28 396.75 427.573 389.313 L 401.854 318.65 C 399.147 311.212 402.988 302.976 410.426 300.269 Z" style="stroke:none;fill:#7D7D7D;stroke-miterlimit:10;"/><path d="M 519.945 262.17 L 556.577 248.837 C 562.957 246.515 570.023 249.809 572.345 256.19 L 599.459 330.685 C 601.781 337.065 598.486 344.13 592.106 346.452 L 555.474 359.785 C 549.094 362.108 542.029 358.813 539.707 352.433 L 512.593 277.937 C 510.271 271.557 513.565 264.492 519.945 262.17 Z" style="stroke:none;fill:#7D7D7D;stroke-miterlimit:10;"/><path d=" M 434.832 671.866 Q 513.24 691.45 599.412 660.086 Q 694.729 625.393 745.915 550.338 Q 794.247 477.548 789.986 388.328 L 702.251 420.261 Q 700.79 473.538 671.358 517.369 Q 641.925 561.201 589.934 580.124 Q 494.617 614.817 418.383 573.872 Q 344.02 534.7 312.482 448.048 Q 280.943 361.396 312.729 283.589 Q 327.391 246.36 357.763 216.906 Q 388.135 187.452 440.126 168.529 Q 492.117 149.605 542.837 164.264 Q 593.558 178.922 628.924 218.795 L 716.659 186.863 Q 662.573 115.777 578.761 91.084 Q 491.304 66.49 395.988 101.182 Q 276.842 144.548 231.672 252.986 Q 187.88 358.469 231.246 477.615 Q 264.717 569.576 332.73 621.927 L 338.297 666.193 L 347.404 738.623 L 402.357 696.663 L 434.832 671.866 Z " fill="rgb(255,255,255)"/><path d="M 403.211 295.595 L 433.558 284.55 C 441.642 281.607 450.594 285.782 453.537 293.866 L 478.403 362.186 C 481.346 370.27 477.171 379.222 469.087 382.165 L 438.74 393.21 C 430.656 396.153 421.704 391.978 418.762 383.894 L 393.895 315.574 C 390.953 307.489 395.127 298.537 403.211 295.595 Z" style="stroke:none;fill:#FFFFFF;stroke-miterlimit:10;"/><path d="M 515.594 256.454 L 544.158 246.058 C 552.765 242.925 562.295 247.369 565.428 255.976 L 589.605 322.404 C 592.738 331.01 588.294 340.541 579.687 343.673 L 551.123 354.07 C 542.516 357.202 532.986 352.758 529.853 344.152 L 505.676 277.724 C 502.543 269.117 506.987 259.587 515.594 256.454 Z" style="stroke:none;fill:#FFFFFF;stroke-miterlimit:10;"/></g></svg>